<?xml version="1.0" encoding="utf-8"?>
<!-- Generator: Adobe Illustrator 25.0.0, SVG Export Plug-In . SVG Version: 6.00 Build 0)  -->
<svg version="1.1" id="Layer_1" xmlns="http://www.w3.org/2000/svg" xmlns:xlink="http://www.w3.org/1999/xlink" x="0px" y="0px"
	 viewBox="0 0 70 53" style="enable-background:new 0 0 70 53;" xml:space="preserve">
<style type="text/css">
	.st0{fill:#FFFFFF;}
	.st1{fill:#404041;stroke:#FFFFFF;stroke-miterlimit:10;}
</style>
<g>
	<polygon class="st0" points="66.2,16.5 66.2,6.9 59.7,6.9 59.7,3 57.2,3 57.2,0.6 44.4,0.6 44.4,3 44.4,6.9 44.4,13.3 44.4,16.5 
		44.4,22.8 52.4,22.8 57.2,22.8 59.7,22.8 66.2,22.8 69.5,22.8 69.5,16.5 	"/>
	<g>
		<g>
			<path class="st0" d="M47.2,34.8c-2.2,0.4-3.4,2-3.4,4.8c0,2.9,1.5,4.8,3.8,4.8c1.1,0,2.1-0.4,4.1-1.4v2.3
				c-2.5,1.1-3.9,1.5-5.9,1.5c-2.2,0-3.7-0.6-4.9-1.8c-1.3-1.3-1.9-2.9-1.9-4.8c0-4.1,3.1-6.9,7.6-6.9c3,0,5,1.4,5,3.3
				c0,1.3-1,2.2-2.4,2.2c-0.7,0-1.3-0.2-2.1-0.6L47.2,34.8L47.2,34.8z"/>
			<path class="st0" d="M36.3,40.3c2-2.5,2.7-3.5,2.7-4.7c0-1.2-1-2.2-2.3-2.2c-0.8,0-1.5,0.4-1.9,0.8v5.1l-3.3,4.3v-9.8h-3.1
				l-5.2,8.5v-8.5h-1.8l-4.7,1.1V36l2.6,0.3v10.4h3.3l4.9-8v8h3.6L36.3,40.3z"/>
			<path class="st0" d="M7,45.1c0.4,0,0.5,0,0.7,0c2.7,0,4.1-1.6,4.1-4.8c0-2.7-1.2-4.1-3.3-4.1c-0.4,0-0.7,0-1.5,0.1L7,45.1L7,45.1
				z M7,50.8l2.1,0.5v1.2H0.7v-1.2l1.9-0.5V36.2H0.5V35l5.1-1.5H7v1.7c2.4-1.4,3.2-1.7,4.5-1.7c2.8,0,5,2.6,5,6.2c0,4.2-2.8,7-7.2,7
				c-0.5,0-1.3,0-2.2-0.1L7,50.8L7,50.8z"/>
		</g>
		<g>
			<rect x="66.2" y="16.5" class="st1" width="3.3" height="6.4"/>
			<rect x="57.2" y="3" class="st1" width="2.5" height="3.9"/>
			<rect x="44.4" y="0.6" class="st1" width="12.8" height="2.5"/>
			<rect x="44.4" y="3" class="st1" width="12.8" height="3.9"/>
			<rect x="59.7" y="6.9" class="st1" width="6.5" height="9.6"/>
			<rect x="59.7" y="17.3" class="st1" width="6.5" height="5.5"/>
			<rect x="57.2" y="6.9" class="st1" width="2.5" height="9.6"/>
			<rect x="57.2" y="16.5" class="st1" width="2.5" height="6.4"/>
			<polygon class="st1" points="52.4,16.5 57.2,16.5 57.2,6.9 44.4,6.9 44.4,13.3 52.4,13.3 			"/>
			<rect x="52.4" y="16.5" class="st1" width="4.8" height="6.4"/>
			<rect x="44.4" y="13.3" class="st1" width="8" height="3.2"/>
			<rect x="44.4" y="16.5" class="st1" width="8" height="6.4"/>
			<rect x="31.6" y="22.8" class="st0" width="12.9" height="3.2"/>
		</g>
	</g>
</g>
</svg>
